<svg width="1436" height="1334" viewBox="0 0 1436 1334" fill="none" xmlns="http://www.w3.org/2000/svg">
<path opacity="0.0344828" d="M263.592 753.383C262.603 746.481 264.872 739.25 270.259 731.763C275.651 724.269 284.131 716.572 295.444 708.793C318.068 693.235 351.842 677.468 394.298 662.402C479.194 632.274 598.588 605.022 732.35 587.804C866.111 570.587 988.849 566.672 1079.15 574.249C1124.3 578.038 1161.29 584.696 1187.47 593.972C1200.56 598.61 1210.9 603.884 1218.21 609.744C1225.51 615.598 1229.73 621.994 1230.72 628.896C1231.71 635.798 1229.44 643.029 1224.05 650.516C1218.66 658.01 1210.18 665.707 1198.86 673.487C1176.24 689.045 1142.47 704.811 1100.01 719.877C1015.11 750.005 895.72 777.257 761.959 794.475C628.197 811.693 505.459 815.607 415.161 808.03C370.004 804.241 333.017 797.583 306.835 788.307C293.744 783.669 283.405 778.395 276.1 772.535C268.802 766.681 264.58 760.285 263.592 753.383Z" stroke="white" stroke-width="2"/>
<path opacity="0.0689655" d="M256.939 711.539C256.601 704.58 259.538 697.557 265.604 690.532C271.675 683.5 280.84 676.516 292.834 669.68C316.82 656.009 351.927 643.033 395.614 631.459C482.972 608.315 604.411 590.833 739.216 584.517C874.021 578.201 996.602 584.25 1085.81 599.121C1130.42 606.558 1166.62 616.193 1191.82 627.56C1204.42 633.244 1214.22 639.339 1220.95 645.771C1227.67 652.197 1231.27 658.914 1231.61 665.873C1231.95 672.832 1229.01 679.855 1222.94 686.88C1216.87 693.912 1207.71 700.896 1195.71 707.732C1171.73 721.403 1136.62 734.379 1092.93 745.953C1005.58 769.097 884.138 786.579 749.333 792.895C614.528 799.211 491.946 793.162 402.743 778.291C358.132 770.854 321.928 761.219 296.726 749.852C284.125 744.168 274.324 738.073 267.6 731.641C260.881 725.215 257.277 718.498 256.939 711.539Z" stroke="white" stroke-width="2"/>
<path opacity="0.103448" d="M253.993 669.52C254.309 662.557 257.891 655.795 264.589 649.285C271.293 642.77 281.074 636.552 293.657 630.711C318.822 619.03 354.995 608.944 399.581 600.95C488.735 584.966 611.295 577.387 746.118 582.021C880.94 586.655 1002.43 602.621 1089.86 624.674C1133.59 635.703 1168.73 648.24 1192.76 661.613C1204.78 668.299 1213.97 675.168 1220.06 682.124C1226.15 689.073 1229.11 696.06 1228.79 703.022C1228.47 709.985 1224.89 716.747 1218.19 723.257C1211.49 729.772 1201.71 735.99 1189.13 741.831C1163.96 753.512 1127.79 763.598 1083.2 771.592C994.048 787.576 871.488 795.155 736.666 790.521C601.843 785.888 480.351 769.921 392.921 747.868C349.198 736.839 314.05 724.302 290.021 710.93C278.006 704.243 268.818 697.374 262.725 690.418C256.637 683.469 253.678 676.483 253.993 669.52Z" stroke="white" stroke-width="2"/>
<path opacity="0.137931" d="M254.758 627.628C255.724 620.715 259.925 614.266 267.204 608.321C274.49 602.371 284.812 596.967 297.889 592.166C324.041 582.563 361.005 575.444 406.15 571.091C496.422 562.388 619.17 564.771 752.984 580.319C886.798 595.867 1006.28 621.629 1091.27 650.696C1133.77 665.233 1167.59 680.578 1190.27 695.853C1201.61 703.491 1210.11 711.082 1215.53 718.508C1220.94 725.928 1223.23 733.131 1222.26 740.045C1221.3 746.958 1217.09 753.407 1209.82 759.352C1202.53 765.302 1192.21 770.706 1179.13 775.507C1152.98 785.11 1116.01 792.229 1070.87 796.582C980.598 805.285 857.85 802.902 724.036 787.354C590.222 771.806 470.743 746.044 385.752 716.977C343.248 702.44 309.425 687.095 286.751 671.82C275.414 664.182 266.909 656.591 261.494 649.165C256.083 641.745 253.791 634.542 254.758 627.628Z" stroke="white" stroke-width="2"/>
<path opacity="0.172414" d="M259.204 586.164C260.814 579.352 265.602 573.266 273.407 567.931C281.219 562.591 292.004 558.042 305.474 554.317C332.415 546.867 369.889 542.768 415.249 542.09C505.952 540.734 627.954 553.06 759.741 579.404C891.528 605.749 1008.08 641.11 1089.99 676.971C1130.95 694.904 1163.19 712.94 1184.34 730.002C1194.91 738.533 1202.67 746.789 1207.36 754.629C1212.06 762.463 1213.66 769.827 1212.05 776.639C1210.44 783.451 1205.66 789.537 1197.85 794.873C1190.04 800.212 1179.25 804.761 1165.78 808.486C1138.84 815.936 1101.37 820.035 1056.01 820.713C965.305 822.069 843.303 809.743 711.516 783.399C579.73 757.055 463.174 721.693 381.268 685.833C340.308 667.899 308.067 649.864 286.921 632.802C276.347 624.27 268.59 616.015 263.893 608.174C259.201 600.341 257.594 592.977 259.204 586.164Z" stroke="white" stroke-width="2"/>
<path opacity="0.206897" d="M267.276 545.425C269.518 538.767 274.855 533.089 283.127 528.404C291.407 523.716 302.571 520.057 316.334 517.436C343.857 512.195 381.556 511.148 426.786 514.149C517.23 520.151 637.557 542.326 766.314 579.266C895.071 616.206 1007.82 660.899 1086.01 703.279C1125.12 724.473 1155.53 745.061 1174.99 763.781C1184.72 773.141 1191.67 781.997 1195.61 790.192C1199.55 798.38 1200.46 805.85 1198.22 812.509C1195.98 819.167 1190.64 824.845 1182.37 829.529C1174.09 834.218 1162.92 837.877 1149.16 840.498C1121.64 845.739 1083.94 846.786 1038.71 843.785C948.264 837.783 827.937 815.608 699.181 778.668C570.424 741.728 457.678 697.035 379.481 654.655C340.376 633.461 309.962 612.872 290.505 594.153C280.776 584.793 273.825 575.936 269.883 567.741C265.945 559.554 265.035 552.084 267.276 545.425Z" stroke="white" stroke-width="2"/>
<path opacity="0.241379" d="M278.89 505.702C281.746 499.247 287.592 494.021 296.268 490.023C304.951 486.021 316.411 483.279 330.361 481.783C358.258 478.791 395.894 480.803 440.651 487.462C530.147 500.776 647.883 532.631 772.63 579.886C897.377 627.14 1005.46 680.823 1079.35 729.4C1116.3 753.694 1144.66 776.679 1162.28 796.913C1171.09 807.031 1177.18 816.421 1180.33 824.908C1183.49 833.388 1183.7 840.906 1180.84 847.361C1177.98 853.815 1172.14 859.041 1163.46 863.039C1154.78 867.041 1143.32 869.783 1129.37 871.279C1101.47 874.271 1063.83 872.259 1019.08 865.601C929.582 852.287 811.846 820.431 687.099 773.177C562.352 725.922 454.274 672.239 380.382 623.662C343.429 599.369 315.073 576.383 297.454 556.149C288.643 546.032 282.552 536.641 279.395 528.154C276.24 519.675 276.034 512.156 278.89 505.702Z" stroke="white" stroke-width="2"/>
<path opacity="0.275862" d="M293.939 467.281C297.387 461.08 303.698 456.345 312.712 453.064C321.733 449.779 333.401 447.976 347.431 447.616C375.49 446.895 412.778 451.952 456.72 462.216C544.587 482.741 658.837 524.035 778.624 581.244C898.412 638.453 1001 700.718 1070.02 755.123C1104.54 782.331 1130.62 807.538 1146.27 829.133C1154.1 839.931 1159.28 849.783 1161.63 858.498C1163.98 867.205 1163.48 874.715 1160.03 880.916C1156.58 887.118 1150.27 891.852 1141.26 895.134C1132.24 898.418 1120.57 900.222 1106.54 900.582C1078.48 901.302 1041.19 896.246 997.25 885.981C909.383 865.456 795.133 824.163 675.346 766.953C555.558 709.744 452.971 647.479 383.945 593.074C349.426 565.866 323.345 540.659 307.696 519.064C299.872 508.266 294.686 498.414 292.337 489.699C289.991 480.993 290.49 473.482 293.939 467.281Z" stroke="white" stroke-width="2"/>
<path opacity="0.310345" d="M312.281 430.432C316.296 424.531 323.023 420.324 332.306 417.784C341.597 415.242 353.384 414.391 367.388 415.169C395.395 416.726 432.05 424.788 474.843 438.581C560.412 466.16 670.306 516.578 784.223 583.306C898.14 650.035 994.456 720.408 1058.09 780.227C1089.91 810.142 1113.52 837.379 1127.08 860.17C1133.86 871.566 1138.1 881.806 1139.62 890.682C1141.14 899.55 1139.94 906.994 1135.93 912.895C1131.91 918.796 1125.18 923.003 1115.9 925.543C1106.61 928.085 1094.82 928.936 1080.82 928.158C1052.81 926.601 1016.16 918.539 973.363 904.746C887.794 877.167 777.9 826.749 663.983 760.021C550.066 693.292 453.75 622.919 390.117 563.1C358.294 533.185 334.687 505.948 321.128 483.157C314.348 471.761 310.108 461.521 308.586 452.645C307.065 443.777 308.266 436.333 312.281 430.432Z" stroke="white" stroke-width="2"/>
<path opacity="0.344828" d="M333.758 395.42C338.309 389.864 345.402 386.217 354.883 384.438C364.372 382.658 376.189 382.765 390.061 384.676C417.802 388.498 453.545 399.505 494.864 416.72C577.485 451.144 682.186 510.302 789.365 586.042C896.544 661.782 985.855 739.728 1043.61 804.505C1072.5 836.899 1093.45 865.959 1104.82 889.773C1110.5 901.681 1113.76 912.23 1114.45 921.2C1115.13 930.161 1113.24 937.483 1108.69 943.039C1104.13 948.594 1097.04 952.242 1087.56 954.021C1078.07 955.801 1066.25 955.694 1052.38 953.783C1024.64 949.961 988.898 938.954 947.58 921.739C864.959 887.314 760.258 828.157 653.079 752.417C545.9 676.676 456.589 598.731 398.831 533.954C369.947 501.559 348.992 472.499 337.627 448.685C331.944 436.778 328.681 426.229 327.997 417.259C327.314 408.298 329.207 400.975 333.758 395.42Z" stroke="white" stroke-width="2"/>
<path opacity="0.37931" d="M358.183 362.49C363.235 357.322 370.64 354.261 380.247 353.257C389.863 352.252 401.619 353.316 415.252 356.346C442.518 362.404 477.077 376.272 516.606 396.779C595.65 437.786 694.362 505.233 793.987 589.409C893.612 673.584 975.239 758.509 1026.68 827.751C1052.41 862.379 1070.55 893.04 1079.63 917.696C1084.18 930.024 1086.44 940.803 1086.28 949.798C1086.12 958.784 1083.55 965.929 1078.5 971.097C1073.44 976.265 1066.04 979.325 1056.43 980.329C1046.82 981.334 1035.06 980.27 1021.43 977.24C994.161 971.182 959.602 957.314 920.073 936.807C841.029 895.8 742.317 828.353 642.692 744.177C543.067 660.002 461.44 575.077 409.998 505.835C384.273 471.207 366.13 440.546 357.044 415.89C352.501 403.562 350.241 392.783 350.4 383.789C350.56 374.802 353.131 367.657 358.183 362.49Z" stroke="white" stroke-width="2"/>
<path opacity="0.413793" d="M385.348 331.876C390.863 327.135 398.523 324.685 408.183 324.463C417.852 324.241 429.459 326.255 442.75 330.379C469.332 338.628 502.445 355.251 539.884 378.894C614.748 426.171 706.72 501.396 798.033 593.365C889.346 685.335 962.668 776.593 1007.4 849.774C1029.77 886.371 1044.97 918.4 1051.7 943.71C1055.07 956.365 1056.31 967.291 1055.31 976.243C1054.31 985.187 1051.08 992.099 1045.57 996.84C1040.05 1001.58 1032.39 1004.03 1022.73 1004.25C1013.06 1004.47 1001.45 1002.46 988.163 998.336C961.581 990.088 928.469 973.465 891.03 949.822C816.165 902.544 724.194 827.32 632.88 735.35C541.567 643.38 468.245 552.123 423.511 478.942C401.14 442.345 385.947 410.315 379.211 385.006C375.842 372.35 374.602 361.425 375.603 352.473C376.604 343.529 379.834 336.617 385.348 331.876Z" stroke="white" stroke-width="2"/>
<path opacity="0.448276" d="M415.027 303.793C420.962 299.515 428.819 297.694 438.459 298.256C448.108 298.819 459.476 301.767 472.325 306.955C498.02 317.331 529.434 336.582 564.498 363.181C634.614 416.37 719.145 498.798 801.451 597.862C883.758 696.927 948.216 793.823 985.903 870.385C1004.75 908.673 1016.88 941.827 1021.21 967.598C1023.38 980.484 1023.59 991.474 1021.76 1000.31C1019.92 1009.15 1016.06 1015.77 1010.12 1020.05C1004.19 1024.33 996.33 1026.15 986.69 1025.59C977.041 1025.03 965.673 1022.08 952.825 1016.89C927.129 1006.51 895.715 987.263 860.651 960.663C790.536 907.475 706.005 825.047 623.698 725.983C541.391 626.918 476.933 530.022 439.247 453.46C420.4 415.172 408.273 382.018 403.937 356.247C401.769 343.361 401.557 332.371 403.393 323.531C405.228 314.698 409.091 308.071 415.027 303.793Z" stroke="white" stroke-width="2"/>
<path opacity="0.482759" d="M446.972 278.438C453.283 274.655 461.277 273.477 470.823 274.819C480.378 276.162 491.422 280.022 503.729 286.234C528.343 298.658 557.819 320.392 590.242 349.745C655.074 408.439 731.522 497.444 804.195 602.849C876.868 708.254 931.973 810.051 962.325 889.412C977.503 929.1 986.472 963.126 988.375 989.162C989.326 1002.18 988.507 1013.15 985.851 1021.81C983.196 1030.47 978.728 1036.76 972.417 1040.54C966.106 1044.32 958.112 1045.5 948.566 1044.16C939.011 1042.82 927.967 1038.96 915.66 1032.74C891.046 1020.32 861.57 998.587 829.147 969.234C764.315 910.54 687.867 821.535 615.194 716.13C542.521 610.725 487.416 508.927 457.064 429.567C441.886 389.879 432.917 355.853 431.014 329.817C430.063 316.798 430.882 305.828 433.539 297.166C436.193 288.512 440.661 282.22 446.972 278.438Z" stroke="white" stroke-width="2"/>
<path opacity="0.517241" d="M480.915 255.98C487.554 252.722 495.624 252.196 505.004 254.307C514.392 256.42 525.027 261.162 536.7 268.352C560.045 282.729 587.359 306.78 616.893 338.663C675.949 402.416 743.731 497.321 806.218 608.264C868.705 719.208 914.036 825.131 936.822 906.687C948.218 947.472 953.96 982.111 953.415 1008.21C953.143 1021.27 951.299 1032.13 947.842 1040.55C944.388 1048.96 939.349 1054.87 932.711 1058.13C926.072 1061.39 918.002 1061.91 908.622 1059.8C899.233 1057.69 888.598 1052.95 876.926 1045.76C853.581 1031.38 826.267 1007.33 796.733 975.445C737.676 911.691 669.895 816.787 607.407 705.843C544.92 594.9 499.589 488.976 476.803 407.421C465.408 366.635 459.666 331.997 460.211 305.894C460.483 292.842 462.327 281.975 465.784 273.557C469.238 265.147 474.276 259.238 480.915 255.98Z" stroke="white" stroke-width="2"/>
<path opacity="0.551724" d="M516.578 236.577C523.494 233.868 531.579 233.998 540.721 236.863C549.871 239.73 560.017 245.318 570.966 253.43C592.864 269.652 617.808 295.836 644.229 330.007C697.06 398.334 755.66 498.415 807.486 614.053C859.311 729.691 894.523 838.934 909.571 922.064C917.096 963.636 919.567 998.624 916.579 1024.6C915.085 1037.58 912.231 1048.26 908 1056.37C903.773 1064.47 898.202 1069.95 891.286 1072.66C884.37 1075.37 876.285 1075.24 867.143 1072.38C857.993 1069.51 847.847 1063.92 836.898 1055.81C814.999 1039.59 790.055 1013.4 763.635 979.235C710.804 910.907 652.204 810.826 600.378 695.188C548.553 579.55 513.341 470.307 498.293 387.177C490.768 345.605 488.297 310.617 491.285 284.645C492.779 271.659 495.633 260.978 499.864 252.869C504.091 244.767 509.662 239.287 516.578 236.577Z" stroke="white" stroke-width="2"/>
<path opacity="0.586207" d="M553.666 220.354C560.806 218.214 568.845 219 577.679 222.596C586.522 226.195 596.101 232.587 606.243 241.559C626.528 259.502 648.912 287.621 672.018 323.819C718.222 396.2 767.195 500.697 807.964 620.149C848.733 739.6 873.559 851.333 880.753 935.403C884.35 977.447 883.533 1012.52 878.124 1038.16C875.419 1050.98 871.577 1061.4 866.604 1069.13C861.635 1076.87 855.575 1081.88 848.434 1084.02C841.294 1086.16 833.255 1085.37 824.421 1081.77C815.578 1078.18 805.999 1071.78 795.857 1062.81C775.572 1044.87 753.188 1016.75 730.081 980.552C683.878 908.17 634.905 803.674 594.136 684.222C553.367 564.77 528.541 453.038 521.347 368.967C517.75 326.924 518.567 291.853 523.976 266.21C526.681 253.389 530.523 242.975 535.496 235.236C540.465 227.504 546.525 222.493 553.666 220.354Z" stroke="white" stroke-width="2"/>
<path opacity="0.62069" d="M591.876 207.419C599.186 205.865 607.117 207.3 615.577 211.6C624.045 215.904 632.984 223.051 642.242 232.815C660.759 252.343 680.413 282.182 700.029 320.132C739.254 396.016 778.226 504.133 807.629 626.49C837.031 748.846 851.282 862.217 850.568 946.589C850.21 988.783 846.11 1023.67 838.321 1048.79C834.427 1061.35 829.625 1071.42 823.948 1078.73C818.276 1086.03 811.772 1090.53 804.461 1092.08C797.151 1093.64 789.22 1092.2 780.76 1087.9C772.292 1083.6 763.353 1076.45 754.094 1066.69C735.577 1047.16 715.923 1017.32 696.308 979.372C657.083 903.487 618.111 795.37 588.708 673.014C559.306 550.657 545.055 437.287 545.769 352.914C546.127 310.72 550.227 275.833 558.015 250.715C561.91 238.155 566.712 228.088 572.389 220.778C578.061 213.474 584.565 208.972 591.876 207.419Z" stroke="white" stroke-width="2"/>
<path opacity="0.655172" d="M630.893 197.847C638.318 196.891 646.081 198.964 654.102 203.936C662.131 208.912 670.362 216.76 678.666 227.242C695.275 248.205 712.049 279.538 728.025 318.95C759.972 397.761 788.648 508.675 806.46 633.005C824.272 757.335 827.839 871.481 819.222 955.513C814.913 997.537 807.561 1031.98 797.452 1056.38C792.397 1068.58 786.672 1078.22 780.334 1085.05C774.003 1091.87 767.104 1095.83 759.679 1096.78C752.254 1097.74 744.491 1095.67 736.47 1090.69C728.441 1085.72 720.211 1077.87 711.906 1067.39C695.298 1046.43 678.523 1015.09 662.547 975.68C630.6 896.87 601.924 785.956 584.112 661.625C566.3 537.295 562.733 423.149 571.35 339.117C575.66 297.094 583.011 262.655 593.12 238.253C598.175 226.052 603.9 216.407 610.238 209.582C616.57 202.763 623.468 198.803 630.893 197.847Z" stroke="white" stroke-width="2"/>
<path opacity="0.689655" d="M670.403 191.698C677.886 191.348 685.421 194.043 692.942 199.648C700.47 205.258 707.931 213.747 715.218 224.868C729.791 247.107 743.558 279.695 755.773 320.27C780.199 401.407 798.36 514.274 804.446 639.632C810.532 764.989 803.389 879.042 786.934 962.094C778.705 1003.63 768.158 1037.35 755.806 1060.86C749.629 1072.61 743.025 1081.75 736.075 1088.04C729.131 1094.33 721.89 1097.71 714.407 1098.06C706.924 1098.41 699.389 1095.72 691.867 1090.11C684.339 1084.5 676.879 1076.01 669.592 1064.89C655.019 1042.66 641.252 1010.07 629.037 969.492C604.611 888.355 586.45 775.488 580.364 650.13C574.278 524.773 581.421 410.72 597.876 327.668C606.105 286.135 616.652 252.408 629.004 228.907C635.181 217.156 641.785 208.008 648.735 201.719C655.679 195.436 662.919 192.049 670.403 191.698Z" stroke="white" stroke-width="2"/>
<path opacity="0.724138" d="M710.078 188.998C717.563 189.255 724.814 192.553 731.778 198.749C738.748 204.951 745.381 214.016 751.595 225.689C764.022 249.036 774.677 282.63 783.038 324.06C799.757 406.905 807.265 520.866 801.579 646.297C795.893 771.729 778.093 884.82 753.926 966.26C741.841 1006.99 728.178 1039.75 713.676 1062.17C706.425 1073.38 698.992 1081.96 691.482 1087.66C683.979 1093.36 676.452 1096.15 668.968 1095.89C661.484 1095.64 654.233 1092.34 647.269 1086.14C640.299 1079.94 633.665 1070.88 627.451 1059.2C615.024 1035.86 604.369 1002.26 596.008 960.832C579.289 877.987 571.781 764.026 577.467 638.595C583.153 513.164 600.953 400.072 625.12 318.633C637.205 277.905 650.868 245.147 665.37 222.726C672.621 211.515 680.054 202.933 687.564 197.229C695.067 191.53 702.594 188.741 710.078 188.998Z" stroke="white" stroke-width="2"/>
<path opacity="0.758621" d="M749.598 189.749C757.026 190.612 763.937 194.486 770.291 201.226C776.65 207.972 782.406 217.545 787.499 229.683C797.686 253.958 805.148 288.304 809.591 330.273C818.476 414.196 815.274 528.384 797.859 652.934C780.444 777.484 752.123 888.753 720.428 967.961C704.578 1007.57 687.904 1039.11 671.363 1060.28C663.092 1070.87 654.886 1078.82 646.874 1083.9C638.869 1088.97 631.113 1091.14 623.684 1090.27C616.256 1089.41 609.345 1085.54 602.991 1078.8C596.632 1072.05 590.876 1062.48 585.783 1050.34C575.596 1026.06 568.134 991.718 563.691 949.749C554.806 865.827 558.008 751.639 575.423 627.089C592.838 502.538 621.159 391.269 652.854 312.061C668.704 272.45 685.378 240.909 701.919 219.739C710.19 209.154 718.395 201.203 726.408 196.127C734.413 191.055 742.169 188.886 749.598 189.749Z" stroke="white" stroke-width="2"/>
<path opacity="0.793103" d="M788.639 193.927C795.955 195.389 802.473 199.811 808.168 207.043C813.869 214.282 818.703 224.289 822.637 236.8C830.506 261.82 834.717 296.655 835.209 338.844C836.193 423.205 822.304 536.751 793.293 659.472C764.282 782.193 725.655 890.794 686.674 967.167C667.179 1005.36 647.621 1035.44 629.167 1055.2C619.939 1065.08 611.024 1072.34 602.57 1076.75C594.123 1081.16 586.197 1082.69 578.881 1081.23C571.565 1079.76 565.046 1075.34 559.351 1068.11C553.651 1060.87 548.817 1050.86 544.882 1038.35C537.014 1013.33 532.802 978.498 532.31 936.309C531.327 851.948 545.215 738.402 574.227 615.681C603.238 492.96 641.865 384.359 680.846 307.987C700.34 269.793 719.899 239.709 738.353 219.951C747.58 210.072 756.496 202.813 764.95 198.404C773.396 193.998 781.322 192.464 788.639 193.927Z" stroke="white" stroke-width="2"/>
<path opacity="0.827586" d="M826.881 201.481C834.029 203.531 840.105 208.466 845.098 216.136C850.096 223.813 853.972 234.179 856.717 246.966C862.208 272.54 863.137 307.6 859.674 349.688C852.749 433.846 828.28 545.886 787.893 665.844C747.506 785.802 698.868 890.907 652.896 963.864C629.906 1000.35 607.612 1028.75 587.385 1046.94C577.272 1056.04 567.714 1062.55 558.883 1066.26C550.06 1069.97 542.023 1070.85 534.875 1068.8C527.727 1066.75 521.65 1061.82 516.657 1054.15C511.66 1046.47 507.784 1036.1 505.039 1023.32C499.548 997.743 498.619 962.683 502.082 920.596C509.007 836.437 533.476 724.398 573.863 604.44C614.25 484.482 662.888 379.376 708.86 306.42C731.85 269.935 754.143 241.537 774.37 223.341C784.484 214.243 794.042 207.732 802.873 204.022C811.696 200.316 819.733 199.43 826.881 201.481Z" stroke="white" stroke-width="2"/>
<path opacity="0.862069" d="M864.012 212.335C870.937 214.959 876.526 220.37 880.779 228.419C885.036 236.475 887.924 247.12 889.459 260.088C892.53 286.021 890.17 321.039 882.778 362.705C867.997 446.02 833.134 555.7 781.679 671.982C730.224 788.264 671.944 889.075 619.332 958.06C593.022 992.559 568.162 1019.05 546.316 1035.55C535.393 1043.8 525.266 1049.51 516.125 1052.49C506.992 1055.47 498.906 1055.7 491.981 1053.08C485.055 1050.46 479.467 1045.04 475.214 1037C470.957 1028.94 468.069 1018.29 466.534 1005.33C463.463 979.394 465.822 944.376 473.215 902.71C487.996 819.395 522.859 709.714 574.314 593.433C625.769 477.151 684.049 376.34 736.66 307.355C762.971 272.856 787.831 246.361 809.677 229.866C820.6 221.618 830.727 215.903 839.868 212.922C849.001 209.944 857.086 209.712 864.012 212.335Z" stroke="white" stroke-width="2"/>
<path opacity="0.896552" d="M899.728 226.389C906.378 229.565 911.436 235.412 914.916 243.778C918.4 252.153 920.278 262.996 920.592 276.045C921.22 302.14 915.589 336.849 904.324 377.776C881.799 459.614 836.807 566.101 774.676 677.822C712.544 789.543 645.067 885.291 586.215 949.779C556.784 982.03 529.547 1006.42 506.249 1021.09C494.599 1028.42 483.98 1033.3 474.599 1035.53C465.226 1037.76 457.153 1037.33 450.503 1034.16C443.852 1030.98 438.795 1025.13 435.314 1016.77C431.83 1008.39 429.952 997.549 429.638 984.501C429.01 958.406 434.641 923.696 445.906 882.77C468.431 800.932 513.423 694.445 575.555 582.724C637.686 471.003 705.164 375.255 764.015 310.766C793.447 278.516 820.683 254.125 843.981 239.456C855.631 232.122 866.25 227.247 875.632 225.017C885.005 222.789 893.078 223.213 899.728 226.389Z" stroke="white" stroke-width="2"/>
<path opacity="0.931035" d="M933.733 243.516C940.058 247.221 944.546 253.458 947.228 262.079C949.912 270.708 950.766 281.667 949.856 294.697C948.036 320.756 939.177 354.893 924.125 394.769C894.027 474.506 839.249 576.989 766.914 683.299C694.579 789.608 618.417 879.565 553.773 939.067C521.445 968.824 492.04 990.925 467.466 1003.66C455.179 1010.02 444.148 1014.02 434.598 1015.48C425.056 1016.94 417.057 1015.86 410.733 1012.16C404.409 1008.45 399.92 1002.22 397.238 993.597C394.554 984.968 393.7 974.009 394.61 960.979C396.43 934.92 405.289 900.783 420.341 860.907C450.439 781.169 505.217 678.687 577.552 572.377C649.888 466.067 726.049 376.11 790.693 316.609C823.021 286.852 852.426 264.751 877 252.02C889.287 245.655 900.318 241.657 909.869 240.195C919.41 238.734 927.409 239.812 933.733 243.516Z" stroke="white" stroke-width="2"/>
<path opacity="0.965517" d="M965.751 263.569C971.701 267.774 975.586 274.354 977.448 283.163C979.313 291.981 979.136 302.973 977.009 315.886C972.755 341.71 960.735 375.014 942.011 413.536C904.57 490.567 840.422 588.265 758.434 688.354C676.445 788.444 592.179 871.925 522.235 925.987C487.257 953.023 455.906 972.666 430.244 983.362C417.413 988.71 406.054 991.8 396.407 992.483C386.769 993.165 378.906 991.443 372.955 987.238C367.005 983.033 363.12 976.453 361.258 967.644C359.393 958.826 359.57 947.834 361.697 934.922C365.951 909.097 377.971 875.793 396.695 837.271C434.136 760.241 498.284 662.542 580.272 562.453C662.261 462.363 746.527 378.882 816.471 324.82C851.449 297.784 882.801 278.141 908.462 267.445C921.293 262.097 932.652 259.007 942.299 258.324C951.937 257.642 959.8 259.364 965.751 263.569Z" stroke="white" stroke-width="2"/>
<path d="M995.51 286.375C1001.04 291.048 1004.29 297.921 1005.32 306.852C1006.35 315.791 1005.15 326.732 1001.82 339.429C995.163 364.822 980.073 397.039 957.819 433.915C913.32 507.652 840.291 599.823 749.274 692.93C658.256 786.037 566.526 862.407 491.815 910.618C454.452 934.728 421.394 951.763 394.839 960.343C381.562 964.633 369.962 966.792 360.292 966.691C350.631 966.589 342.963 964.235 337.432 959.562C331.901 954.889 328.649 948.016 327.62 939.085C326.59 930.146 327.795 919.205 331.123 906.508C337.779 881.115 352.869 848.897 375.122 812.022C419.622 738.285 492.651 646.114 583.668 553.007C674.686 459.9 766.416 383.53 841.127 335.319C878.49 311.209 911.548 294.174 938.103 285.594C951.38 281.304 962.98 279.145 972.65 279.246C982.311 279.348 989.979 281.702 995.51 286.375Z" stroke="white" stroke-width="2"/>
</svg>
