<svg width="1366" height="1360" viewBox="0 0 1366 1360" fill="none" xmlns="http://www.w3.org/2000/svg">
<path opacity="0.2" d="M509.529 529.275C523.877 589.761 525.09 735.333 419.963 699.655C343.145 673.585 279.598 619.641 201.762 596.238C176.659 588.691 152.107 587.496 126.401 591.697C105.948 595.039 82.8632 606.056 61.9099 604.802C35.2831 603.208 43.9558 554.816 51.943 542.093C68.6974 515.404 100.981 498.979 127.887 483.501C163.744 462.873 202.908 445.495 233.944 418.135C272.146 384.46 262.453 346.913 250.123 304.356C235.847 255.083 202.791 182.669 230.195 132.549C253.841 89.3016 338.371 80.4632 382.653 84.378C437.352 89.2137 457.417 164.545 469.781 204.931C486.558 259.731 504.033 319.032 465.796 368.005C446.191 393.115 409.079 424.442 420.449 459.78C429.161 486.857 462.455 490.573 481.566 508.368C492.403 518.457 502.967 529.647 516.766 535.86" stroke="#311996" stroke-width="3" stroke-linecap="round"/>
<path opacity="0.216327" d="M537.578 530.464C546.312 591.902 534.135 737.01 432.682 692.785C358.548 660.47 300.198 601.484 224.805 571.742C200.491 562.15 176.141 558.932 150.145 560.992C129.46 562.632 105.449 571.699 84.6896 568.719C58.3089 564.931 71.3987 517.443 80.5258 505.429C99.6715 480.227 133.344 466.534 161.573 453.338C199.193 435.753 239.808 421.677 273.244 396.987C314.398 366.598 308.194 328.396 299.824 284.985C290.132 234.723 263.858 159.858 295.767 112.196C323.301 71.0697 408.328 69.249 452.084 76.8068C506.133 86.1427 519.197 162.841 527.801 204.091C539.477 260.065 551.434 320.581 508.838 366.205C486.997 389.598 447.143 417.738 455.221 453.879C461.411 481.571 494.239 488.023 511.643 507.328C521.511 518.273 531.006 530.292 544.183 537.622" stroke="#351995" stroke-width="3" stroke-linecap="round"/>
<path opacity="0.232653" d="M564.982 533.512C568.033 595.434 542.559 738.975 445.553 686.54C374.668 648.225 321.96 584.647 249.584 548.792C226.242 537.228 202.279 532.011 176.191 531.915C155.433 531.839 130.678 538.888 110.27 534.204C84.3362 528.252 101.743 482.029 111.941 470.816C133.332 447.293 168.138 436.434 197.475 425.622C236.57 411.212 278.328 400.546 313.909 378.715C357.704 351.843 355.035 313.276 350.688 269.341C345.653 218.474 326.361 141.728 362.534 96.886C393.746 58.1934 478.622 63.4041 521.52 74.5476C574.508 88.3126 580.471 165.793 585.25 207.595C591.736 264.317 598.084 325.586 551.452 367.515C527.542 389.013 485.25 413.751 489.975 450.42C493.595 478.516 525.707 487.655 541.271 508.323C550.095 520.041 558.45 532.799 570.904 541.188" stroke="#381995" stroke-width="3" stroke-linecap="round"/>
<path opacity="0.24898" d="M591.57 538.36C588.917 600.294 550.34 741.175 458.517 680.929C391.421 636.906 344.756 569.22 275.947 527.524C253.756 514.077 230.362 506.899 204.38 504.649C183.707 502.859 158.397 507.835 138.496 501.483C113.207 493.412 134.799 448.806 145.989 438.478C169.463 416.814 205.137 408.872 235.358 400.525C275.633 389.401 318.215 382.226 355.67 363.419C401.772 340.269 402.66 301.631 402.368 257.507C402.029 206.42 389.866 128.378 430.026 86.6977C464.679 50.7334 548.759 62.936 590.471 77.5803C641.996 95.6697 640.813 173.343 641.73 215.378C642.976 272.416 643.667 333.973 593.354 371.887C567.557 391.326 523.148 412.475 524.484 449.392C525.507 477.679 556.658 489.435 570.264 511.309C577.978 523.711 585.129 537.109 596.764 546.495" stroke="#3C1994" stroke-width="3" stroke-linecap="round"/>
<path opacity="0.265306" d="M617.182 544.932C608.843 606.408 557.457 743.557 471.517 675.958C408.72 626.562 368.453 555.282 303.735 508.063C282.864 492.835 260.217 483.753 234.54 479.365C214.108 475.873 188.435 478.739 169.193 470.768C144.74 460.639 170.353 417.989 182.451 408.626C207.829 388.985 244.1 384.021 274.976 378.203C316.122 370.449 359.204 366.82 398.249 351.179C446.307 331.928 450.744 293.513 454.51 249.536C458.87 198.619 453.928 119.873 497.771 81.6721C535.601 48.7098 618.244 67.8113 658.454 85.845C708.123 108.121 699.802 185.396 696.851 227.344C692.847 284.265 687.876 345.64 634.265 379.251C606.777 396.484 560.59 413.882 558.526 450.766C556.945 479.028 586.899 493.313 598.442 516.226C604.987 529.217 610.879 543.154 621.608 553.465" stroke="#3F1A94" stroke-width="3" stroke-linecap="round"/>
<path opacity="0.281633" d="M641.661 553.142C627.701 613.69 563.897 746.064 484.494 671.626C426.473 617.233 392.911 542.903 332.777 490.52C313.384 473.626 291.657 462.709 266.479 456.216C246.445 451.051 220.605 451.785 202.167 442.254C178.737 430.144 208.176 389.775 221.09 381.448C248.179 363.979 284.77 362.031 316.065 358.786C357.771 354.462 401.025 354.406 441.362 342.052C491.01 326.845 498.963 288.945 506.759 245.449C515.784 195.089 518.101 116.24 565.292 81.809C606.011 52.0995 686.589 77.9547 724.99 99.2404C772.425 125.534 757.03 201.822 750.233 243.364C741.011 299.734 730.415 360.461 673.914 389.513C644.945 404.408 597.33 417.924 591.883 454.494C587.709 482.516 616.237 499.22 625.631 522.998C630.956 536.48 635.545 550.85 645.286 562.007" stroke="#431A93" stroke-width="3" stroke-linecap="round"/>
<path opacity="0.297959" d="M664.861 562.889C645.387 622.05 569.65 748.64 497.388 667.931C444.586 608.955 417.983 532.14 362.891 474.991C345.124 456.561 324.482 443.89 299.995 435.343C280.511 428.542 254.7 427.139 237.208 416.122C214.979 402.123 248.019 364.343 261.651 357.114C290.245 341.951 326.878 343.034 358.355 342.387C400.301 341.525 443.4 345.042 484.721 336.068C535.582 325.022 546.99 287.925 558.755 245.242C572.378 195.823 581.936 117.47 632.116 87.0708C675.415 60.8403 753.314 93.2522 789.614 117.628C834.454 147.738 812.102 222.46 801.511 263.28C787.14 318.669 771 378.286 712.039 402.558C681.809 415.002 633.13 424.532 624.34 460.511C617.606 488.079 644.491 507.076 651.663 531.538C655.729 545.408 658.979 560.101 667.658 572.02" stroke="#471A92" stroke-width="3" stroke-linecap="round"/>
<path opacity="0.314286" d="M686.647 574.062C661.805 631.385 574.712 751.228 510.142 664.861C462.96 601.752 443.52 523.036 393.888 461.557C377.882 441.73 358.483 427.404 334.873 416.866C316.088 408.482 290.502 404.952 274.088 392.533C253.23 376.751 289.62 341.847 303.865 335.772C333.746 323.03 370.143 327.135 401.561 329.091C443.43 331.698 486.044 338.762 528.036 333.236C579.722 326.435 594.498 290.424 610.144 248.878C628.26 200.775 644.987 123.515 697.774 97.3794C743.323 74.8275 817.95 113.55 851.873 140.83C893.776 174.528 864.638 247.114 850.333 286.901C830.923 340.889 809.362 398.942 748.39 418.248C717.128 428.147 667.755 433.618 655.691 468.732C646.446 495.638 671.484 516.781 676.38 541.741C679.156 555.893 681.043 570.798 688.593 583.388" stroke="#4A1A92" stroke-width="3" stroke-linecap="round"/>
<path opacity="0.330612" d="M706.891 586.538C676.872 641.587 579.085 753.772 522.698 662.405C481.495 595.641 469.366 515.624 425.573 450.283C411.449 429.21 393.44 413.336 370.888 400.89C352.943 390.986 327.778 385.355 312.567 371.628C293.238 354.185 332.701 322.421 347.452 317.547C378.393 307.323 414.276 314.419 445.397 318.963C486.87 325.019 528.674 335.576 571.017 333.541C623.135 331.036 641.167 296.385 660.575 256.292C683.045 209.872 706.813 134.293 761.806 112.619C809.258 93.9178 880.046 138.655 911.334 168.633C949.982 205.662 914.278 275.56 896.369 314.011C872.068 366.187 845.249 422.234 782.73 436.429C750.675 443.706 700.984 445.077 685.736 479.059C674.052 505.096 697.052 528.227 699.635 553.495C701.099 567.821 701.608 582.824 707.973 595.989" stroke="#4E1A91" stroke-width="3" stroke-linecap="round"/>
<path opacity="0.346939" d="M725.481 600.185C690.512 652.542 582.777 756.213 535.001 660.542C500.091 590.632 495.364 509.923 457.743 441.217C445.61 419.059 429.128 401.758 407.804 387.497C390.837 376.149 366.284 368.461 352.392 353.53C334.739 334.557 376.976 306.177 392.119 302.541C423.884 294.912 458.981 304.945 489.567 312.043C530.328 321.501 571.006 335.472 613.377 336.942C665.531 338.752 686.681 305.726 709.703 267.391C736.358 223.007 766.986 149.684 823.766 132.637C872.76 117.928 939.169 168.341 967.584 200.787C1002.68 240.866 960.686 307.544 939.308 344.367C910.3 394.333 878.428 447.947 814.838 456.922C782.234 461.524 732.603 458.784 714.287 491.374C700.253 516.346 721.04 541.287 721.29 566.67C721.431 581.063 720.559 596.05 725.69 609.689" stroke="#511A91" stroke-width="3" stroke-linecap="round"/>
<path opacity="0.363265" d="M742.314 614.863C702.662 664.127 585.797 758.498 546.998 659.249C518.646 586.726 521.358 505.939 490.194 434.39C480.144 411.316 465.314 392.721 445.382 376.752C429.522 364.047 405.767 354.36 393.3 338.34C377.458 317.982 422.146 293.201 437.567 290.829C469.915 285.855 503.958 298.748 533.777 308.345C573.516 321.134 612.756 338.411 654.834 343.377C706.626 349.488 730.734 318.337 757.195 282.053C787.83 240.043 825.086 169.534 883.221 157.244C933.384 146.639 994.91 202.343 1020.23 237.011C1051.52 279.835 1003.55 342.784 978.863 377.699C945.369 425.075 908.687 475.849 844.51 479.536C811.604 481.426 762.411 474.597 741.167 505.548C724.889 529.263 743.306 555.825 741.22 581.131C740.038 595.479 737.791 610.337 741.648 624.347" stroke="#551B90" stroke-width="3" stroke-linecap="round"/>
<path opacity="0.379592" d="M757.303 630.421C713.27 676.219 588.165 760.569 558.636 658.499C537.058 583.915 547.188 503.664 522.72 429.818C514.829 406.002 501.765 386.254 483.375 368.701C468.743 354.734 445.967 343.122 435.02 326.134C421.109 304.546 467.908 283.553 483.489 282.465C516.174 280.182 548.904 295.838 577.729 307.861C616.143 323.884 653.649 344.336 695.113 352.758C746.149 363.125 773.031 334.086 802.728 300.128C837.113 260.811 880.712 193.653 939.759 186.213C990.71 179.794 1046.88 240.365 1068.93 276.991C1096.15 322.234 1042.57 380.977 1014.77 413.717C977.049 458.143 935.835 505.69 871.559 504.06C838.603 503.225 790.221 492.358 766.211 521.434C747.814 543.713 763.719 571.694 759.315 596.729C756.817 610.924 753.213 625.538 755.767 639.813" stroke="#591B8F" stroke-width="3" stroke-linecap="round"/>
<path opacity="0.395918" d="M770.373 646.704C722.293 688.687 589.901 762.376 569.867 658.261C555.229 582.183 572.699 503.079 555.113 427.497C549.441 403.122 538.241 382.371 521.534 363.366C508.241 348.245 486.619 334.796 477.274 316.97C465.4 294.316 513.954 277.27 529.578 277.473C562.35 277.899 593.518 296.199 621.13 310.557C657.927 329.691 693.411 353.162 733.946 364.978C783.838 379.521 813.29 352.815 845.998 321.442C883.869 285.118 933.48 221.821 992.991 219.288C1044.34 217.103 1094.73 282.081 1113.33 320.386C1136.29 367.703 1077.51 421.792 1046.81 452.109C1005.14 493.246 959.706 537.205 895.82 530.271C863.064 526.717 815.863 511.895 789.269 538.875C768.892 559.548 782.165 588.734 775.475 613.309C771.682 627.243 766.747 641.502 767.979 655.933" stroke="#5C1B8F" stroke-width="3" stroke-linecap="round"/>
<path opacity="0.412245" d="M781.465 663.55C729.705 701.399 591.032 763.865 580.647 658.498C573.058 581.505 597.737 504.151 587.166 427.409C583.756 402.659 574.506 381.063 559.609 360.752C547.756 344.59 527.451 329.408 519.781 310.878C510.034 287.331 559.974 274.362 575.52 275.855C608.13 278.987 637.499 299.791 663.688 316.374C698.588 338.475 731.781 364.787 771.078 379.905C819.446 398.514 851.243 374.344 886.714 345.794C927.783 312.74 983.028 253.787 1042.55 256.18C1093.91 258.246 1138.14 327.135 1153.14 366.828C1171.67 415.859 1108.14 464.883 1074.76 492.546C1029.46 530.081 980.158 570.117 917.148 557.932C884.842 551.685 839.18 533.021 810.205 557.699C788.003 576.609 798.543 606.779 789.618 630.706C784.558 644.273 778.331 658.07 778.232 672.546" stroke="#601B8E" stroke-width="3" stroke-linecap="round"/>
<path opacity="0.428571" d="M790.534 680.795C735.488 714.221 591.59 764.989 590.932 659.172C590.451 581.85 622.15 506.834 618.674 429.515C617.553 404.58 610.323 382.303 597.35 360.84C587.027 343.762 568.194 326.96 562.256 307.869C554.711 283.607 605.657 274.815 621.007 277.586C653.207 283.4 680.554 306.55 705.119 325.232C737.857 350.13 768.507 379.083 806.266 397.389C852.742 419.922 886.643 398.472 924.606 372.964C968.56 343.43 1029.02 289.269 1088.1 296.57C1139.07 302.871 1176.81 375.148 1188.1 415.927C1202.05 466.299 1134.25 509.884 1098.45 534.682C1049.87 568.331 997.075 604.138 935.421 586.795C903.81 577.903 860.035 555.539 828.899 577.728C805.042 594.73 812.768 625.654 801.677 648.752C795.388 661.848 787.916 675.077 786.486 689.489" stroke="#631B8E" stroke-width="3" stroke-linecap="round"/>
<path opacity="0.444898" d="M797.551 698.269C739.638 727.018 591.611 765.702 600.684 660.24C607.315 583.177 645.792 511.07 649.439 433.763C650.615 408.832 645.461 386.044 634.509 363.592C625.795 345.727 608.577 327.435 604.418 307.927C599.131 283.136 650.695 278.586 665.733 282.615C697.278 291.067 722.393 316.386 745.149 337.026C775.475 364.532 803.348 395.905 839.283 417.26C883.514 443.544 919.26 424.979 959.426 402.705C1005.93 376.917 1071.14 327.96 1129.33 340.114C1179.54 350.601 1210.48 425.716 1217.99 467.27C1227.25 518.6 1155.7 556.415 1117.75 578.16C1066.26 607.665 1010.37 638.972 950.54 616.602C919.864 605.133 878.309 579.239 845.25 598.77C819.918 613.736 824.772 645.179 811.599 667.27C804.13 679.796 795.469 692.356 792.719 706.595" stroke="#671B8D" stroke-width="3" stroke-linecap="round"/>
<path opacity="0.461224" d="M802.504 715.802C742.164 739.656 591.134 765.96 609.87 661.656C623.561 585.439 668.525 516.79 679.267 440.084C682.731 415.346 679.691 392.22 670.845 368.95C663.806 350.435 648.334 330.791 645.984 311.014C642.997 285.883 694.785 285.611 709.397 290.867C740.047 301.891 762.741 329.187 783.514 351.628C811.197 381.533 836.081 415.087 869.918 439.328C911.566 469.165 948.886 453.624 990.95 434.755C1039.65 412.908 1109.12 369.529 1165.97 386.443C1215.03 401.037 1238.95 478.418 1242.6 520.431C1247.12 572.328 1172.35 604.085 1132.55 622.611C1078.54 647.748 1019.98 674.316 962.429 647.091C932.923 633.132 893.904 603.905 859.173 620.629C832.56 633.444 834.505 665.166 819.35 686.084C810.757 697.944 800.973 709.74 796.924 723.697" stroke="#6A1C8D" stroke-width="3" stroke-linecap="round"/>
<path opacity="0.477551" d="M805.394 733.223C743.086 752 590.203 765.725 618.46 663.373C639.107 588.582 690.215 523.913 707.969 448.391C713.695 424.035 712.793 400.748 706.119 376.837C700.809 357.812 687.202 336.966 686.678 317.071C686.013 291.79 737.633 295.798 751.707 302.24C781.229 315.754 801.327 344.82 819.959 368.889C844.789 400.966 866.495 436.445 897.977 463.388C936.726 496.551 975.334 484.153 1018.98 468.832C1069.51 451.094 1142.7 413.621 1197.79 435.166C1245.32 453.757 1262.03 532.814 1261.81 574.967C1261.54 627.036 1184.13 652.493 1142.77 667.659C1086.65 688.237 1025.87 709.864 971.038 677.99C942.926 661.647 906.741 629.31 870.601 643.1C842.91 653.667 841.931 685.427 824.909 705.012C815.258 716.116 804.426 727.059 799.109 740.627" stroke="#6E1C8C" stroke-width="3" stroke-linecap="round"/>
<path opacity="0.493878" d="M806.24 750.363C742.438 763.919 588.865 764.961 626.427 665.339C653.874 592.543 710.737 532.347 735.369 458.584C743.312 434.795 744.555 411.523 740.105 387.154C736.564 367.763 724.924 345.874 726.232 326.013C727.894 300.775 778.952 309.032 792.381 316.612C820.549 332.513 837.9 363.126 854.25 388.642C876.037 422.645 894.4 459.781 923.286 489.22C958.841 525.456 998.445 516.296 1043.33 504.64C1095.3 491.144 1171.67 459.864 1224.57 485.876C1270.21 508.322 1279.6 588.454 1275.5 630.425C1270.44 682.27 1190.98 701.234 1148.38 712.924C1090.58 728.787 1028.04 745.308 976.343 709.028C949.838 690.426 916.762 655.224 879.489 665.976C850.93 674.214 847.034 705.77 828.275 723.873C817.639 734.137 805.842 744.142 799.298 757.218" stroke="#721C8B" stroke-width="3" stroke-linecap="round"/>
<path opacity="0.510204" d="M805.074 767.053C740.265 775.286 587.17 763.637 633.752 667.503C667.79 597.256 729.975 541.99 761.296 470.548C771.398 447.507 774.775 424.428 772.582 399.786C770.838 380.178 761.254 357.411 764.383 337.736C768.359 312.732 818.468 325.175 831.149 333.835C857.75 352.002 872.222 383.93 886.163 410.698C904.743 446.37 919.623 484.879 945.694 516.59C977.784 555.623 1018.08 549.77 1063.87 541.868C1116.89 532.718 1195.85 507.868 1246.16 538.15C1289.57 564.279 1291.55 644.877 1283.61 686.347C1273.8 737.573 1192.89 749.899 1149.38 758.025C1090.34 769.051 1026.51 780.341 978.341 739.93C953.647 719.211 923.93 681.413 885.809 689.044C856.599 694.89 849.816 726.003 829.463 742.486C817.923 751.831 805.25 760.823 797.527 773.308" stroke="#751C8B" stroke-width="3" stroke-linecap="round"/>
<path opacity="0.526531" d="M801.946 783.129C736.622 785.976 585.171 761.724 640.418 669.81C680.787 602.648 747.821 552.733 785.595 484.154C797.777 462.038 803.264 439.327 803.345 414.598C803.41 394.922 795.955 371.452 800.882 352.111C807.142 327.533 855.919 344.067 867.756 353.742C892.588 374.035 904.069 407.036 915.498 434.851C930.728 471.92 942.011 511.51 965.069 545.253C993.45 586.785 1034.14 584.284 1080.48 580.195C1134.14 575.461 1215.09 557.23 1262.43 591.551C1303.27 621.165 1297.83 701.615 1286.11 742.269C1271.63 792.486 1189.89 798.081 1145.8 802.581C1085.96 808.686 1021.33 814.659 977.059 770.426C954.361 747.746 928.232 707.639 889.551 712.091C859.913 715.502 850.295 745.934 828.502 760.672C816.146 769.028 802.694 776.938 793.852 788.736" stroke="#791C8A" stroke-width="3" stroke-linecap="round"/>
<path opacity="0.542857" d="M796.919 798.431C731.578 795.87 582.924 759.2 646.415 672.207C692.809 608.639 764.181 564.455 808.119 499.263C822.289 478.238 829.844 456.068 832.198 431.442C834.072 411.847 828.804 387.852 835.49 368.993C843.987 345.027 891.061 365.527 901.964 376.142C924.837 398.409 933.241 432.23 942.069 460.882C953.834 499.066 961.435 539.434 981.304 574.952C1005.76 618.668 1046.52 619.538 1093.07 619.294C1146.97 619.011 1229.29 607.539 1273.29 645.637C1311.26 678.51 1298.45 758.2 1283.03 797.728C1263.98 846.554 1182.04 845.375 1137.69 846.215C1077.52 847.353 1012.58 847.963 972.545 800.244C952.018 775.777 929.674 733.667 890.729 734.906C860.888 735.855 848.508 765.374 825.441 778.255C812.363 785.558 798.234 792.326 788.34 803.348" stroke="#7C1C8A" stroke-width="3" stroke-linecap="round"/>
<path opacity="0.559184" d="M790.072 812.805C725.211 804.856 580.485 756.047 651.737 674.636C703.802 615.147 778.97 577.03 828.738 515.72C844.788 495.947 854.353 474.487 858.963 450.151C862.632 430.787 859.589 406.449 867.984 388.216C878.653 365.045 923.666 389.354 933.553 400.829C954.292 424.899 959.556 459.283 965.716 488.554C973.926 527.562 977.787 568.402 994.316 605.423C1014.66 650.991 1055.19 655.226 1101.59 658.828C1155.31 662.998 1238.38 658.372 1278.71 699.957C1313.51 735.841 1293.42 814.163 1274.43 852.264C1250.96 899.329 1169.43 891.384 1125.18 888.557C1065.13 884.72 1000.37 879.963 964.874 829.12C946.674 803.052 928.285 759.259 889.372 757.276C859.555 755.756 844.507 784.138 820.343 795.063C806.642 801.258 791.943 806.832 781.074 816.995" stroke="#801D89" stroke-width="3" stroke-linecap="round"/>
<path opacity="0.57551" d="M781.497 826.106C717.61 812.829 577.912 752.252 656.384 677.042C713.724 622.084 792.116 590.326 847.335 533.364C865.143 514.994 876.645 494.407 883.475 470.546C888.911 451.56 888.117 427.065 898.158 409.595C910.917 387.395 953.526 415.329 962.321 427.577C980.77 453.267 982.852 487.953 986.298 517.62C990.891 557.155 990.981 598.156 1004.04 636.4C1020.12 683.472 1060.11 691.038 1106.01 698.459C1159.14 707.052 1242.33 709.306 1278.69 754.063C1310.06 792.682 1282.84 869.042 1260.41 905.426C1232.71 950.37 1152.22 935.721 1108.38 929.248C1048.91 920.465 984.836 910.377 954.145 856.799C938.41 829.328 924.117 784.185 885.531 778.995C855.966 775.018 838.365 802.047 813.286 810.933C799.067 815.972 783.911 820.31 772.147 829.536" stroke="#841D88" stroke-width="3" stroke-linecap="round"/>
<path opacity="0.591837" d="M771.299 838.193C708.872 819.69 575.267 747.806 660.36 679.37C722.539 629.362 803.557 604.202 863.807 552.023C883.238 535.195 896.589 515.638 905.589 492.434C912.749 473.97 914.211 449.505 925.82 432.932C940.573 411.872 980.454 443.218 988.09 456.145C1004.11 483.26 1002.99 517.984 1003.7 547.82C1004.64 587.582 1000.96 628.432 1010.46 667.606C1022.15 715.825 1061.29 726.666 1106.33 737.85C1158.48 750.798 1241.14 759.916 1273.25 807.504C1300.96 848.565 1266.82 922.381 1241.13 956.772C1209.4 999.253 1130.55 978.011 1087.48 967.942C1029.03 954.279 966.128 938.936 940.479 883.03C927.328 854.366 917.239 808.217 879.276 799.859C850.187 793.455 830.166 818.925 804.364 825.705C789.735 829.55 774.236 832.619 761.669 840.837" stroke="#871D88" stroke-width="3" stroke-linecap="round"/>
<path opacity="0.608163" d="M759.596 848.938C699.104 825.349 572.608 742.706 663.675 681.564C730.22 636.887 813.248 618.518 878.07 571.518C898.976 556.36 914.076 537.982 925.175 515.611C934.006 497.81 937.712 473.56 950.802 458.011C967.435 438.251 1004.29 472.77 1010.7 486.278C1024.17 514.611 1019.87 549.109 1017.82 578.888C1015.11 618.573 1007.68 658.961 1013.54 698.769C1020.76 747.767 1058.76 761.799 1102.6 776.661C1153.36 793.868 1234.88 809.78 1262.49 859.836C1286.32 903.027 1245.52 973.737 1216.77 1005.87C1181.25 1045.57 1104.65 1017.89 1062.66 1004.31C1005.69 985.867 944.433 965.387 924.021 907.578C913.555 877.938 907.747 831.134 870.694 819.672C842.302 810.89 820.014 834.608 793.686 839.23C778.758 841.851 763.035 843.628 749.759 850.776" stroke="#8B1D87" stroke-width="3" stroke-linecap="round"/>
<path opacity="0.62449" d="M746.517 858.221C688.419 829.726 569.996 736.952 666.344 683.571C736.748 644.564 821.155 633.125 890.056 591.662C912.276 578.29 929.01 561.231 942.124 539.863C952.559 522.861 958.481 499.011 972.951 484.603C991.34 466.294 1024.88 503.724 1030.03 517.709C1040.84 547.046 1033.38 581.054 1028.61 610.55C1022.25 649.857 1011.14 689.475 1013.32 729.613C1016 779.017 1052.57 796.135 1094.88 814.561C1143.87 835.895 1223.62 858.48 1246.53 910.623C1266.29 955.616 1219.15 1022.68 1187.55 1052.32C1148.51 1088.92 1074.74 1055.03 1034.16 1038.03C979.103 1014.95 919.955 989.49 904.934 930.219C897.233 899.829 895.75 852.726 859.889 838.247C832.412 827.153 808.026 848.938 781.371 851.367C766.258 852.745 750.431 853.216 736.547 859.24" stroke="#8E1D87" stroke-width="3" stroke-linecap="round"/>
<path opacity="0.640816" d="M732.201 865.935C676.941 832.75 567.49 730.552 668.387 685.337C742.113 652.297 827.256 647.876 899.712 612.266C923.079 600.781 941.318 585.17 956.348 564.968C968.308 548.894 976.4 525.626 992.141 512.469C1012.14 495.75 1042.12 535.806 1045.96 550.163C1054.03 580.279 1043.48 613.539 1036.01 642.526C1026.06 681.156 1011.35 719.704 1009.83 759.867C1007.96 809.301 1042.82 829.374 1083.28 851.224C1130.12 876.522 1207.5 905.608 1225.52 959.442C1241.08 1005.89 1187.94 1068.81 1153.73 1095.72C1111.48 1128.96 1041.1 1089.1 1002.24 1068.81C949.506 1041.27 892.92 1011.02 883.405 950.741C878.527 919.833 881.381 872.79 846.986 855.404C820.631 842.083 794.334 861.769 767.555 861.987C752.372 862.111 736.56 861.273 722.174 866.126" stroke="#921D86" stroke-width="3" stroke-linecap="round"/>
<path opacity="0.657143" d="M716.797 871.983C664.795 834.361 565.151 723.517 669.827 686.812C746.316 659.991 831.547 662.621 907.006 633.134C931.341 623.624 950.948 609.581 967.779 590.699C981.172 575.675 991.373 553.165 1008.27 541.359C1029.73 526.358 1055.91 568.735 1058.42 583.354C1063.69 614.02 1050.11 646.28 1040.01 674.538C1026.55 712.197 1008.35 749.38 1003.14 789.261C996.734 838.35 1029.62 861.225 1067.91 886.333C1112.26 915.403 1186.67 950.769 1199.68 1005.88C1210.9 1053.44 1152.18 1111.72 1115.63 1135.7C1070.47 1165.32 1004.02 1119.8 967.172 1096.38C917.167 1064.6 863.575 1029.79 859.638 968.953C857.62 937.761 864.789 891.135 832.121 870.976C807.089 855.529 779.081 872.966 752.382 870.971C737.244 869.84 721.569 867.699 706.791 871.345" stroke="#961E85" stroke-width="3" stroke-linecap="round"/>
<path opacity="0.673469" d="M700.462 876.282C652.114 834.51 563.035 715.862 670.694 687.947C749.363 667.548 834.033 677.209 911.921 654.071C937.04 646.609 957.864 634.239 976.369 616.821C991.093 602.961 1003.33 581.381 1021.24 571.017C1044 557.846 1066.19 602.222 1067.35 616.993C1069.78 647.975 1053.29 678.988 1040.62 706.303C1023.75 742.704 1002.2 778.239 993.344 817.537C982.444 865.906 1013.1 891.408 1048.95 919.583C1090.45 952.204 1161.33 993.581 1169.22 1049.56C1176.03 1097.86 1112.17 1151.06 1073.55 1171.93C1025.84 1197.7 963.829 1146.87 929.269 1120.49C882.373 1084.7 832.181 1045.6 833.853 984.677C834.711 953.439 846.139 907.586 815.447 884.806C791.93 867.351 762.423 882.407 736.007 878.214C721.03 875.836 705.61 872.409 690.552 874.819" stroke="#991E85" stroke-width="3" stroke-linecap="round"/>
<path opacity="0.689796" d="M683.362 878.762C639.035 833.157 561.198 707.609 671.022 688.696C751.272 674.876 834.737 691.494 914.461 674.88C940.172 669.522 962.056 658.92 982.093 643.098C998.036 630.509 1012.21 610.023 1031.01 601.179C1054.9 589.94 1072.92 635.976 1072.71 650.785C1072.29 681.849 1053.01 711.38 1037.88 737.542C1017.72 772.408 992.984 806.026 980.549 844.44C965.243 891.721 993.439 919.658 1026.56 950.685C1064.91 986.609 1131.72 1033.68 1134.44 1090.09C1136.78 1138.77 1068.27 1186.49 1027.87 1204.08C977.969 1225.82 920.863 1170.06 888.857 1140.93C845.428 1101.41 799.019 1058.31 806.287 997.757C810.013 966.711 825.615 921.98 797.133 896.752C775.308 877.422 744.527 889.982 718.596 883.623C703.894 880.017 688.846 875.329 673.623 876.486" stroke="#9D1E84" stroke-width="3" stroke-linecap="round"/>
<path opacity="0.706122" d="M665.665 879.366C625.698 830.275 559.696 698.783 670.848 689.016C752.068 681.879 833.693 705.329 914.646 695.365C940.754 692.152 963.53 683.399 984.947 669.294C1001.99 658.07 1017.99 638.834 1037.53 631.577C1062.37 622.356 1076.09 669.703 1074.52 684.438C1071.24 715.346 1049.32 743.169 1031.84 767.981C1008.55 801.046 980.817 832.491 964.896 869.729C945.3 915.563 970.822 945.721 1000.97 979.364C1035.87 1018.32 1098.1 1070.73 1095.62 1127.14C1093.48 1175.83 1020.84 1217.7 978.973 1231.89C927.26 1249.42 875.494 1189.16 846.286 1157.5C806.654 1114.54 764.381 1067.77 777.189 1008.06C783.756 977.438 803.413 934.169 777.356 906.686C757.391 885.627 725.57 895.596 700.321 887.119C686.005 882.312 671.445 876.399 656.172 876.295" stroke="#A01E84" stroke-width="3" stroke-linecap="round"/>
<path opacity="0.722449" d="M647.547 878.053C612.243 825.851 558.578 689.414 670.212 688.868C751.785 688.468 830.948 718.571 912.515 715.333C938.82 714.289 962.316 707.452 984.95 695.171C1002.96 685.398 1020.67 667.559 1040.81 661.945C1066.4 654.81 1075.71 703.108 1072.8 717.656C1066.69 748.174 1042.29 774.078 1022.59 797.35C996.351 828.364 965.83 857.395 946.545 893.174C922.808 937.211 945.461 969.361 972.4 1005.36C1003.59 1047.05 1060.77 1104.4 1053.11 1160.39C1046.5 1208.71 970.281 1244.42 927.269 1255.1C874.138 1268.29 828.106 1203.98 801.919 1170.03C766.385 1123.96 728.57 1073.89 746.821 1015.46C756.179 985.502 779.74 944.024 756.308 914.494C738.354 891.868 705.735 899.169 681.36 888.639C667.54 882.668 653.578 875.575 638.372 874.209" stroke="#A41E83" stroke-width="3" stroke-linecap="round"/>
<path opacity="0.738775" d="M629.186 874.795C598.813 819.878 557.894 679.536 669.161 688.214C750.465 694.555 826.564 731.081 908.123 734.595C934.426 735.728 958.463 730.859 982.142 720.494C1000.98 712.248 1020.27 695.941 1040.84 692.012C1066.99 687.019 1071.83 735.899 1067.59 750.151C1058.7 780.046 1032.01 803.834 1010.25 825.389C981.253 854.114 948.177 880.512 925.674 914.558C897.977 956.465 917.589 990.362 941.117 1028.45C968.357 1072.55 1020.05 1134.4 1007.27 1189.55C996.247 1237.13 917.025 1266.41 873.192 1273.49C819.048 1282.24 779.101 1214.38 756.133 1178.4C724.968 1129.57 691.899 1076.57 715.454 1019.87C727.531 990.802 754.818 951.432 734.189 920.081C718.382 896.058 685.214 900.636 661.899 888.133C648.679 881.044 635.422 872.825 620.398 870.208" stroke="#A81E82" stroke-width="3" stroke-linecap="round"/>
<path opacity="0.755102" d="M610.76 869.579C585.551 812.366 557.689 669.186 667.741 687.023C748.158 700.057 820.614 742.728 901.545 752.966C927.646 756.268 952.04 753.403 976.583 745.035C996.111 738.377 1016.82 723.726 1037.69 721.512C1064.2 718.699 1064.52 767.79 1058.99 781.636C1047.38 810.681 1018.6 832.172 994.941 851.846C963.412 878.064 928.032 901.627 902.483 933.683C871.036 973.139 887.459 1008.53 907.396 1048.41C930.479 1094.59 976.295 1160.47 958.493 1214.35C943.132 1260.84 861.515 1283.46 817.195 1286.89C762.449 1291.13 728.89 1220.24 709.317 1182.49C682.758 1131.28 654.687 1075.75 683.366 1021.22C698.071 993.263 728.876 956.299 711.207 923.365C697.668 898.129 664.203 899.95 642.124 885.569C629.606 877.415 617.154 868.132 602.427 864.284" stroke="#AB1F82" stroke-width="3" stroke-linecap="round"/>
<path opacity="0.771429" d="M592.451 862.409C572.597 803.334 558.004 658.407 666.005 685.266C744.923 704.893 813.184 753.385 892.871 770.27C918.57 775.715 943.137 774.877 968.357 768.569C988.425 763.549 1010.41 750.666 1031.39 750.185C1058.06 749.573 1053.87 798.5 1047.09 811.836C1032.85 839.809 1002.2 858.839 976.825 876.482C943.004 899.995 905.59 920.544 877.189 950.365C842.232 987.071 855.339 1023.68 871.534 1065.06C890.285 1112.96 929.872 1182.38 907.182 1234.57C887.605 1279.61 804.214 1295.4 759.744 1295.16C704.812 1294.86 677.898 1221.47 661.868 1182.26C640.118 1129.05 617.257 1071.41 650.843 1019.46C668.063 992.827 702.152 958.551 687.577 924.284C676.409 898.028 642.902 897.077 622.228 880.927C610.506 871.771 598.954 861.496 584.637 856.446" stroke="#AF1F81" stroke-width="3" stroke-linecap="round"/>
<path opacity="0.787755" d="M574.438 853.3C560.09 792.814 558.877 647.242 664.004 682.92C740.822 708.99 804.37 762.934 882.206 786.337C907.308 793.884 931.86 795.079 957.566 790.878C978.02 787.536 1001.1 776.519 1022.06 777.773C1048.68 779.367 1040.01 827.759 1032.02 840.482C1015.27 867.171 982.987 883.596 956.08 899.074C920.223 919.702 881.059 937.08 850.023 964.44C811.822 998.115 821.514 1035.66 833.844 1078.22C848.12 1127.49 881.176 1199.91 853.772 1250.03C830.127 1293.27 745.596 1302.11 701.314 1298.2C646.616 1293.36 626.55 1218.03 614.186 1177.64C597.409 1122.84 579.934 1063.54 618.171 1014.57C637.776 989.46 674.888 958.133 663.519 922.795C654.807 895.718 621.513 892.002 602.401 874.207C591.565 864.118 581.001 852.928 567.201 846.715" stroke="#B21F81" stroke-width="3" stroke-linecap="round"/>
<path opacity="0.804082" d="M556.898 842.286C548.165 780.848 560.342 635.739 661.795 679.964C735.928 712.28 794.278 771.265 869.671 801.007C893.985 810.599 918.336 813.817 944.332 811.757C965.016 810.118 989.027 801.05 1009.79 804.031C1036.17 807.818 1023.08 855.306 1013.95 867.32C994.805 892.522 961.132 906.216 932.903 919.412C895.284 936.997 854.668 951.073 821.233 975.762C780.078 1006.15 786.282 1044.35 794.653 1087.76C804.344 1138.03 830.618 1212.89 798.709 1260.55C771.175 1301.68 686.148 1303.5 642.392 1295.94C588.343 1286.61 575.279 1209.91 566.675 1168.66C554.999 1112.68 543.042 1052.17 585.639 1006.54C607.479 983.151 647.333 955.011 639.255 918.871C633.065 891.179 600.238 884.727 582.833 865.422C572.965 854.476 563.47 842.457 550.293 835.128" stroke="#B61F80" stroke-width="3" stroke-linecap="round"/>
<path opacity="0.820408" d="M540.004 829.412C536.952 767.49 562.426 623.949 659.433 676.384C730.318 714.699 783.026 778.277 855.402 814.132C878.744 825.696 902.707 830.913 928.795 831.009C949.553 831.084 974.308 824.036 994.716 828.72C1020.65 834.672 1003.24 880.895 993.045 892.108C971.653 915.631 936.847 926.49 907.511 937.302C868.415 951.712 826.658 962.378 791.077 984.209C747.282 1011.08 749.95 1049.65 754.298 1093.58C759.332 1144.45 778.624 1221.2 742.452 1266.04C711.24 1304.73 626.363 1299.52 583.466 1288.38C530.477 1274.61 524.514 1197.13 519.735 1155.33C513.25 1098.61 506.901 1037.34 553.534 995.409C577.443 973.911 619.736 949.172 615.011 912.504C611.391 884.408 579.279 875.269 563.715 854.601C554.89 842.882 546.536 830.125 534.082 821.736" stroke="#B91F80" stroke-width="3" stroke-linecap="round"/>
<path opacity="0.836735" d="M523.924 814.739C526.578 752.804 565.155 611.923 656.977 672.17C724.074 716.193 770.739 783.879 839.548 825.575C861.739 839.022 885.133 846.199 911.114 848.449C931.788 850.24 957.098 845.263 976.999 851.615C1002.29 859.686 980.696 904.292 969.506 914.62C946.032 936.285 910.357 944.226 880.136 952.573C839.862 963.697 797.28 970.872 759.825 989.68C713.723 1012.83 712.835 1051.47 713.127 1095.59C713.465 1146.68 725.629 1224.72 685.469 1266.4C650.816 1302.36 566.736 1290.16 525.024 1275.52C473.499 1257.43 474.682 1179.76 473.764 1137.72C472.519 1080.68 471.828 1019.13 522.141 981.211C547.938 961.772 592.347 940.623 591.011 903.706C589.987 875.42 558.836 863.663 545.231 841.789C537.517 829.387 530.366 815.989 518.731 806.603" stroke="#BD1F7F" stroke-width="3" stroke-linecap="round"/>
<path opacity="0.853061" d="M508.822 798.341C517.161 736.865 568.547 599.716 654.486 667.315C717.284 716.711 757.551 787.991 822.268 835.21C843.14 850.438 865.786 859.52 891.464 863.908C911.895 867.4 937.569 864.534 956.811 872.505C981.264 882.634 955.651 925.284 943.553 934.647C918.174 954.288 881.904 959.252 851.028 965.07C809.882 972.824 766.799 976.453 727.755 992.094C679.697 1011.35 675.26 1049.76 671.494 1093.74C667.133 1144.65 672.075 1223.4 628.233 1261.6C590.403 1294.56 507.76 1275.46 467.55 1257.43C417.881 1235.15 426.202 1157.88 429.153 1115.93C433.156 1059.01 438.128 997.633 491.739 964.022C519.226 946.789 565.414 929.391 567.478 892.507C569.059 864.245 539.105 849.96 527.562 827.047C521.017 814.056 515.125 800.119 504.396 789.808" stroke="#C1207E" stroke-width="3" stroke-linecap="round"/>
<path opacity="0.869388" d="M494.853 780.306C508.812 719.757 572.616 587.384 652.019 661.821C710.04 716.214 743.602 790.544 803.736 842.927C823.129 859.821 844.856 870.739 870.034 877.231C890.068 882.397 915.909 881.663 934.346 891.193C957.776 903.303 928.338 943.672 915.423 952C888.334 969.468 851.743 971.416 820.448 974.661C778.743 978.985 735.488 979.041 695.151 991.396C645.503 1006.6 637.55 1044.5 629.755 1088C620.729 1138.36 618.412 1217.21 571.221 1251.64C530.502 1281.35 449.924 1255.49 411.523 1234.21C364.088 1207.91 379.483 1131.63 386.28 1090.08C395.502 1033.71 406.098 972.986 462.599 943.935C491.569 929.039 539.183 915.524 544.63 878.953C548.804 850.931 520.276 834.227 510.883 810.449C505.557 796.967 500.968 782.597 491.227 771.44" stroke="#C4207E" stroke-width="3" stroke-linecap="round"/>
<path opacity="0.885714" d="M482.161 760.733C501.636 701.572 577.373 574.982 649.634 655.691C702.437 714.667 729.039 791.482 784.131 848.63C801.899 867.061 822.54 879.731 847.027 888.279C866.511 895.079 892.323 896.483 909.815 907.499C932.043 921.499 899.003 959.279 885.372 966.508C856.778 981.671 820.144 980.588 788.668 981.235C746.721 982.097 703.623 978.579 662.302 987.554C611.441 998.6 600.033 1035.7 588.267 1078.38C574.645 1127.8 565.087 1206.15 514.907 1236.55C471.608 1262.78 393.709 1230.37 357.409 1205.99C312.569 1175.88 334.921 1101.16 345.512 1060.34C359.883 1004.95 376.023 945.336 434.984 921.064C465.214 908.62 513.893 899.09 522.682 863.111C529.417 835.542 502.532 816.546 495.36 792.084C491.294 778.214 488.044 763.521 479.365 751.602" stroke="#C8207D" stroke-width="3" stroke-linecap="round"/>
<path opacity="0.902041" d="M470.885 739.734C495.727 682.411 582.82 562.568 647.39 648.935C694.572 712.044 714.012 790.76 763.643 852.239C779.65 872.066 799.049 886.392 822.658 896.93C841.444 905.314 867.03 908.844 883.444 921.263C904.302 937.045 867.912 971.949 853.667 978.024C823.786 990.766 787.388 986.661 755.971 984.705C714.101 982.098 671.488 975.034 629.496 980.56C577.81 987.361 563.034 1023.37 547.387 1064.92C529.272 1113.02 512.545 1190.28 459.758 1216.42C414.209 1238.97 339.582 1200.25 305.659 1172.97C263.755 1139.27 292.894 1066.68 307.199 1026.9C326.609 972.907 348.17 914.854 409.142 895.548C440.403 885.649 489.776 880.178 501.841 845.064C511.086 818.158 486.047 797.015 481.152 772.055C478.376 757.903 476.489 742.998 468.939 730.408" stroke="#CB207D" stroke-width="3" stroke-linecap="round"/>
<path opacity="0.918367" d="M461.15 717.433C491.169 662.384 588.956 550.199 645.343 641.566C686.546 708.33 698.675 788.347 742.468 853.688C756.592 874.76 774.601 890.634 797.153 903.081C815.098 912.985 840.263 918.616 855.474 932.342C874.803 949.786 835.34 981.549 820.589 986.423C789.648 996.647 753.765 989.552 722.644 985.008C681.171 978.952 639.367 968.394 597.024 970.43C544.906 972.935 526.874 1007.59 507.466 1047.68C484.996 1094.1 461.228 1169.68 406.235 1191.35C358.783 1210.05 287.995 1165.32 256.707 1135.34C218.059 1098.31 253.763 1028.41 271.672 989.959C295.973 937.784 322.792 881.737 385.311 867.542C417.366 860.264 467.057 858.893 482.305 824.912C493.989 798.874 470.989 775.744 468.406 750.476C466.942 736.149 466.433 721.146 460.068 707.982" stroke="#CF207C" stroke-width="3" stroke-linecap="round"/>
<path opacity="0.934694" d="M453.07 693.96C488.038 641.604 595.774 537.932 643.549 633.604C678.459 703.513 683.186 784.222 720.807 852.929C732.94 875.086 749.423 892.387 770.746 906.649C787.713 917.997 812.267 925.685 826.158 940.615C843.811 959.588 801.575 987.968 786.431 991.605C754.666 999.233 719.569 989.2 688.983 982.103C648.222 972.644 607.545 958.674 565.173 957.203C513.019 955.393 491.869 988.42 468.847 1026.75C442.193 1071.14 411.564 1144.46 354.784 1161.51C305.79 1176.22 239.381 1125.8 210.967 1093.36C175.868 1053.28 217.865 986.602 239.243 949.779C268.25 899.813 300.122 846.198 363.712 837.223C396.316 832.622 445.948 835.361 464.263 802.771C478.298 777.799 457.51 752.858 457.26 727.475C457.119 713.083 457.991 698.096 452.861 684.456" stroke="#D3207B" stroke-width="3" stroke-linecap="round"/>
<path opacity="0.95102" d="M446.745 669.457C486.397 620.192 603.262 525.822 642.062 625.071C670.414 697.593 667.702 778.381 698.865 849.93C708.915 873.004 723.745 891.599 743.678 907.567C759.537 920.273 783.292 929.96 795.759 945.98C811.601 966.338 766.914 991.119 751.493 993.49C719.145 998.465 685.102 985.571 655.282 975.975C615.544 963.185 576.303 945.908 534.225 940.943C482.433 934.831 458.325 965.983 431.865 1002.27C401.229 1044.28 363.973 1114.79 305.838 1127.08C255.675 1137.68 194.15 1081.98 168.825 1047.31C137.542 1004.49 185.513 941.535 210.197 906.621C243.69 859.245 280.372 808.471 344.55 804.784C377.455 802.894 426.649 809.723 447.893 778.772C464.17 755.056 445.754 728.494 447.839 703.189C449.021 688.84 451.268 673.983 447.411 659.973" stroke="#D6217B" stroke-width="3" stroke-linecap="round"/>
<path opacity="0.967347" d="M442.266 644.074C486.299 598.275 611.404 513.925 640.933 615.995C662.51 690.579 652.38 770.83 676.848 844.676C684.739 868.492 697.804 888.24 716.193 905.793C730.826 919.76 753.601 931.372 764.548 948.36C778.459 969.948 731.66 990.941 716.079 992.029C683.395 994.312 650.665 978.656 621.839 966.633C583.425 950.61 545.92 930.158 504.456 921.736C453.42 911.369 426.537 940.409 396.84 974.366C362.456 1013.68 318.857 1080.84 259.809 1088.28C208.859 1094.7 152.685 1034.13 130.643 997.503C103.415 952.261 156.994 893.518 184.796 860.777C222.52 816.352 263.733 768.804 328.01 770.434C360.965 771.269 409.347 782.136 433.357 753.06C451.755 730.781 435.85 702.8 440.254 677.765C442.751 663.57 446.356 648.956 443.801 634.681" stroke="#DA217A" stroke-width="3" stroke-linecap="round"/>
<path opacity="0.983673" d="M439.705 617.965C487.784 575.982 620.177 502.293 640.211 606.408C654.849 682.486 637.379 761.59 654.965 837.171C660.637 861.547 671.837 882.298 688.544 901.302C701.837 916.424 723.459 929.872 732.803 947.699C744.678 970.353 696.123 987.398 680.5 987.195C647.728 986.769 616.56 968.47 588.948 954.112C552.151 934.978 516.667 911.506 476.132 899.691C426.24 885.148 396.788 911.854 364.08 943.227C326.209 979.551 276.598 1042.85 217.087 1045.38C165.737 1047.57 115.343 982.588 96.7509 944.283C73.7848 896.966 132.565 842.876 163.273 812.56C204.941 771.422 250.372 727.464 314.258 734.397C347.014 737.952 394.215 752.774 420.809 725.794C441.186 705.121 427.913 675.935 434.603 651.36C438.396 637.426 443.331 623.166 442.099 608.735" stroke="#DD217A" stroke-width="3" stroke-linecap="round"/>
<path d="M439.122 591.293C490.882 553.444 629.555 490.978 639.94 596.345C647.529 673.338 622.85 750.693 633.422 827.435C636.831 852.184 646.081 873.78 660.978 894.092C672.831 910.253 693.136 925.435 700.806 943.965C710.553 967.512 660.613 980.481 645.067 978.988C612.457 975.856 583.088 955.052 556.899 938.469C521.999 916.368 488.806 890.056 449.509 874.938C401.141 856.33 369.344 880.499 333.873 909.049C292.804 942.103 237.559 1001.06 178.038 998.663C126.679 996.598 82.4479 927.708 67.4473 888.015C48.9177 838.984 112.451 789.96 145.832 762.297C191.126 724.762 240.429 684.726 303.439 696.911C335.745 703.158 381.407 721.822 410.382 697.144C432.584 678.234 422.044 648.064 430.969 624.137C436.029 610.57 442.256 596.774 442.355 582.297" stroke="#E12179" stroke-width="3" stroke-linecap="round"/>
</svg>
